<?xml version="1.0" standalone="no"?>
<!DOCTYPE svg PUBLIC "-//W3C//DTD SVG 20010904//EN"
 "http://www.w3.org/TR/2001/REC-SVG-20010904/DTD/svg10.dtd">
<svg version="1.0" xmlns="http://www.w3.org/2000/svg"
 width="1024.000000pt" height="384.000000pt" viewBox="0 0 1024.000000 384.000000"
 preserveAspectRatio="xMidYMid meet">
<metadata>
Created by potrace 1.15, written by Peter Selinger 2001-2017
</metadata>
<g transform="translate(0.000000,384.000000) scale(0.100000,-0.100000)"
fill="#000000" stroke="none">
<path d="M0 1920 l0 -1920 2220 0 2220 0 0 380 0 380 -340 0 -340 0 0 1155 0
1155 855 0 855 0 0 -1535 0 -1535 510 0 510 0 0 1535 0 1535 510 0 510 0 0
-1535 0 -1535 515 0 515 0 0 640 0 640 340 0 340 0 0 -640 0 -640 510 0 510 0
0 1920 0 1920 -510 0 -510 0 0 -900 0 -900 -340 0 -340 0 0 900 0 900 -3245 0
-3245 0 0 -385 0 -385 345 0 345 0 0 -1155 0 -1155 -855 0 -855 0 0 1540 0
1540 -515 0 -515 0 0 -1920z"/>
</g>
</svg>
